<?xml version="1.0" encoding="UTF-8"?>
<svg id="a" data-name="Слой 1" xmlns="http://www.w3.org/2000/svg" xmlns:xlink="http://www.w3.org/1999/xlink" viewBox="0 0 16 16">
  <defs>
    <style>
      .c {
        fill: #fff;
      }

      .d {
        clip-path: url(#b);
      }

      .e {
        fill: #cf222d;
      }

      .f {
        fill: none;
      }
    </style>
    <clipPath id="b">
      <rect class="f" x="2.43" y="2.4" width="11.15" height="11.19"/>
    </clipPath>
  </defs>
  <g class="d">
    <g>
      <path class="e" d="M5.89,13.05c.16-.08,.33-.52,.41-.78,.25-.7,.56-1.57,.82-2.29,.21-.68,.65-1.4,.37-2.06-.22-.52-.7-.97-1.08-1.44-.52-.62-1.1-1.33-1.61-1.92-.47-.52-.75-.52-1.01,.2-.27,.75-.6,1.68-.88,2.47-.12,.34-.22,.62-.33,.92-.14,.38-.22,.76-.11,1.09,.1,.36,.4,.71,.67,1.03,.25,.3,.58,.69,.85,1.02,.22,.27,.44,.53,.65,.78,.3,.32,.87,1.23,1.24,.99h0s0,0,0,0Z"/>
      <path class="e" d="M13.56,7.58c.07,.17-.07,.6-.17,.84-.25,.69-.56,1.56-.82,2.27-.27,.65-.39,1.48-1.02,1.8-.5,.25-1.14,.28-1.73,.41-.8,.14-1.69,.31-2.46,.44-.68,.1-.92-.07-.67-.78,.26-.74,.6-1.65,.88-2.43,.13-.34,.22-.62,.34-.93,.13-.38,.32-.72,.6-.9,.3-.21,.76-.28,1.17-.35,.39-.07,.87-.16,1.29-.23,.58-.1,1.28-.23,1.82-.32,.32-.06,.73-.05,.78,.17h0s0,0,0,0Z"/>
      <path class="e" d="M4.77,3.79c0,.18,.28,.54,.45,.73,.48,.56,1.08,1.26,1.57,1.84,.48,.51,.89,1.25,1.59,1.33,.56,.06,1.19-.13,1.79-.22,.8-.14,1.69-.29,2.46-.44,.68-.14,.85-.38,.36-.96-.51-.6-1.14-1.34-1.68-1.97-.24-.28-.43-.5-.64-.75-.26-.31-.55-.56-.88-.63-.36-.09-.82,0-1.23,.07-.39,.07-.87,.15-1.29,.23-.35,.06-.69,.12-1.02,.18-.42,.1-1.49,.14-1.48,.58h0s0,0,0,0Z"/>
      <path class="c" d="M8.06,6.75c-.22-.26-.13-.52,.21-.58,.33-.06,.78,.1,1,.36,.22,.26,.13,.52-.21,.58-.33,.06-.78-.1-1-.36Z"/>
      <path class="c" d="M11.12,6.27c-.22-.26-.13-.52,.21-.58,.33-.06,.78,.1,1,.36,.22,.26,.13,.52-.21,.58-.33,.06-.78-.1-1-.36Z"/>
      <path class="c" d="M5.9,4.18c-.22-.26-.13-.52,.21-.58,.33-.06,.78,.1,1,.36,.22,.26,.13,.52-.21,.58-.33,.06-.78-.1-1-.36Z"/>
      <path class="c" d="M8.96,3.69c-.22-.26-.13-.52,.21-.58,.33-.06,.78,.1,1,.36,.22,.26,.13,.52-.21,.58-.33,.06-.78-.1-1-.36Z"/>
      <path class="c" d="M5.2,11.77c-.21-.25-.29-.7-.18-1.01,.11-.31,.37-.36,.58-.11,.21,.25,.29,.7,.18,1.01-.11,.31-.37,.36-.58,.11h0Z"/>
      <path class="c" d="M3.25,9.39c-.21-.25-.29-.7-.18-1.01,.11-.31,.37-.36,.58-.11,.21,.25,.29,.7,.18,1.01-.11,.31-.37,.36-.58,.11h0Z"/>
      <path class="c" d="M6.31,8.94c-.21-.25-.29-.7-.18-1.01,.11-.31,.37-.36,.58-.11,.21,.25,.29,.7,.18,1.01-.11,.31-.37,.36-.58,.11h0Z"/>
      <path class="c" d="M4.36,6.56c-.21-.25-.29-.7-.18-1.01,.11-.31,.37-.36,.58-.11,.21,.25,.29,.7,.18,1.01-.11,.31-.37,.36-.58,.11h0Z"/>
      <path class="c" d="M4.9,9.18c-.21-.25-.29-.7-.18-1.01,.11-.31,.37-.36,.58-.11,.21,.25,.29,.7,.18,1.01-.11,.31-.37,.36-.58,.11h0Z"/>
      <path class="c" d="M9.1,9.75c-.32,.06-.5-.15-.38-.46,.11-.31,.47-.61,.79-.67,.32-.06,.5,.15,.38,.46-.11,.31-.47,.61-.79,.67h0Z"/>
      <path class="c" d="M11.83,9.29c-.32,.06-.5-.15-.38-.46,.11-.31,.47-.61,.79-.67,.32-.06,.5,.15,.38,.46-.11,.31-.47,.61-.79,.67h0Z"/>
      <path class="c" d="M8.63,11.15c-.32,.06-.5-.15-.38-.46,.11-.31,.47-.61,.79-.67,.32-.06,.5,.15,.38,.46-.11,.31-.47,.61-.79,.67h0Z"/>
      <path class="c" d="M11.36,10.69c-.32,.06-.5-.15-.38-.46,.11-.31,.47-.61,.79-.67,.32-.06,.5,.15,.38,.46-.11,.31-.47,.61-.79,.67h0Z"/>
      <path class="c" d="M8.16,12.55c-.32,.06-.5-.15-.38-.46,.11-.31,.47-.61,.79-.67,.32-.06,.5,.15,.38,.46-.11,.31-.47,.61-.79,.67h0Z"/>
      <path class="c" d="M10.88,12.09c-.32,.06-.5-.15-.38-.46,.11-.31,.47-.61,.79-.67,.32-.06,.5,.15,.38,.46-.11,.31-.47,.61-.79,.67h0Z"/>
    </g>
  </g>
  <rect class="f" width="16" height="16"/>
</svg>